M48
METRIC,TZ
T01C.4
;LEADER: 12 
;HEADER: 
;CODE  : ASCII 
;FILE  : DRILL-1-2.drl for  ... layers TOP and BOTTOM
;DESIGN: PROJECT_PCB.brd
;T01 Holesize 1. = 0.400000 Tolerance = +0.000000/-0.000000 PLATED MM Quantity = 26
%
G90
T01
X2010000Y2690000
X1870000Y2440000
X2970000Y3830000
X3310000Y2150000
X3310000Y3500000
X3310000Y990000
X2210000Y3630000
X1691100Y2480000
X2016020Y2056020
X2240000Y2590000
X2570000Y2900000
X2570000Y3190000
X1850000Y860000
X1310000Y860000
X1050000Y2350000
X730000Y3450000
X970000Y3450000
X1050000Y2570000
X1140000Y1450000
X1400000Y1450000
X1860000Y3031100
X2200000Y3100000
X1450000Y3450000
X1590000Y2679970
X2880000Y2950000
X2880000Y3180000
M30
