G04 ================== begin FILE IDENTIFICATION RECORD ==================*
G04 Layout Name:  PROJECT_PCB.brd*
G04 Film Name:    FAB*
G04 File Format:  Gerber RS274X*
G04 File Origin:  Cadence Allegro 17.2-S025*
G04 Origin Date:  Tue Dec 09 01:12:37 2025*
G04 *
G04 Layer:  MANUFACTURING/NCDRILL_LEGEND*
G04 Layer:  MANUFACTURING/NCDRILL_FIGURE*
G04 Layer:  MANUFACTURING/XSECTION_CHART*
G04 Layer:  MANUFACTURING/NCLEGEND-1-2*
G04 Layer:  BOARD GEOMETRY/DIMENSION*
G04 Layer:  BOARD GEOMETRY/DESIGN_OUTLINE*
G04 *
G04 Offset:    (0.0000 0.0000)*
G04 Mirror:    No*
G04 Mode:      Positive*
G04 Rotation:  0*
G04 FullContactRelief:  No*
G04 UndefLineWidth:     0.3000*
G04 ================== end FILE IDENTIFICATION RECORD ====================*
%FSLAX25Y25*MOIN*%
%IR0*IPPOS*OFA0.00000B0.00000*MIA0B0*SFA1.00000B1.00000*%
%AMMACRO10*
1,1,.011811,.025,0.0*
20,1,.011811,.025,0.0,.02462,-.004341,0.0*
1,1,.011811,.02462,-.004341*
20,1,.011811,.02462,-.004341,.023492,-.008551,0.0*
1,1,.011811,.023492,-.008551*
20,1,.011811,.023492,-.008551,.021651,-.0125,0.0*
1,1,.011811,.021651,-.0125*
20,1,.011811,.021651,-.0125,.019151,-.01607,0.0*
1,1,.011811,.019151,-.01607*
20,1,.011811,.019151,-.01607,.01607,-.019151,0.0*
1,1,.011811,.01607,-.019151*
20,1,.011811,.01607,-.019151,.0125,-.021651,0.0*
1,1,.011811,.0125,-.021651*
20,1,.011811,.0125,-.021651,.008551,-.023492,0.0*
1,1,.011811,.008551,-.023492*
20,1,.011811,.008551,-.023492,.004341,-.02462,0.0*
1,1,.011811,.004341,-.02462*
20,1,.011811,.004341,-.02462,0.0,-.025,0.0*
1,1,.011811,0.0,-.025*
20,1,.011811,0.0,-.025,-.004341,-.02462,0.0*
1,1,.011811,-.004341,-.02462*
20,1,.011811,-.004341,-.02462,-.008551,-.023492,0.0*
1,1,.011811,-.008551,-.023492*
20,1,.011811,-.008551,-.023492,-.0125,-.021651,0.0*
1,1,.011811,-.0125,-.021651*
20,1,.011811,-.0125,-.021651,-.01607,-.019151,0.0*
1,1,.011811,-.01607,-.019151*
20,1,.011811,-.01607,-.019151,-.019151,-.01607,0.0*
1,1,.011811,-.019151,-.01607*
20,1,.011811,-.019151,-.01607,-.021651,-.0125,0.0*
1,1,.011811,-.021651,-.0125*
20,1,.011811,-.021651,-.0125,-.023492,-.008551,0.0*
1,1,.011811,-.023492,-.008551*
20,1,.011811,-.023492,-.008551,-.02462,-.004341,0.0*
1,1,.011811,-.02462,-.004341*
20,1,.011811,-.02462,-.004341,-.025,0.0,0.0*
1,1,.011811,-.025,0.0*
20,1,.011811,-.025,0.0,-.02462,.004341,0.0*
1,1,.011811,-.02462,.004341*
20,1,.011811,-.02462,.004341,-.023492,.008551,0.0*
1,1,.011811,-.023492,.008551*
20,1,.011811,-.023492,.008551,-.021651,.0125,0.0*
1,1,.011811,-.021651,.0125*
20,1,.011811,-.021651,.0125,-.019151,.01607,0.0*
1,1,.011811,-.019151,.01607*
20,1,.011811,-.019151,.01607,-.01607,.019151,0.0*
1,1,.011811,-.01607,.019151*
20,1,.011811,-.01607,.019151,-.0125,.021651,0.0*
1,1,.011811,-.0125,.021651*
20,1,.011811,-.0125,.021651,-.008551,.023492,0.0*
1,1,.011811,-.008551,.023492*
20,1,.011811,-.008551,.023492,-.004341,.02462,0.0*
1,1,.011811,-.004341,.02462*
20,1,.011811,-.004341,.02462,0.0,.025,0.0*
1,1,.011811,0.0,.025*
20,1,.011811,0.0,.025,.004341,.02462,0.0*
1,1,.011811,.004341,.02462*
20,1,.011811,.004341,.02462,.008551,.023492,0.0*
1,1,.011811,.008551,.023492*
20,1,.011811,.008551,.023492,.0125,.021651,0.0*
1,1,.011811,.0125,.021651*
20,1,.011811,.0125,.021651,.01607,.019151,0.0*
1,1,.011811,.01607,.019151*
20,1,.011811,.01607,.019151,.019151,.01607,0.0*
1,1,.011811,.019151,.01607*
20,1,.011811,.019151,.01607,.021651,.0125,0.0*
1,1,.011811,.021651,.0125*
20,1,.011811,.021651,.0125,.023492,.008551,0.0*
1,1,.011811,.023492,.008551*
20,1,.011811,.023492,.008551,.02462,.004341,0.0*
1,1,.011811,.02462,.004341*
20,1,.011811,.02462,.004341,.025,0.0,0.0*
1,1,.011811,.025,0.0*
1,1,.011811,.0125,0.0*
20,1,.011811,.0125,0.0,-.0125,0.0,0.0*
1,1,.011811,-.0125,0.0*
1,1,.011811,0.0,.0125*
20,1,.011811,0.0,.0125,0.0,-.0125,0.0*
1,1,.011811,0.0,-.0125*
%
%ADD10MACRO10*%
%ADD11C,.003937*%
%ADD12C,.011811*%
G75*
%LPD*%
G75*
G36*
G01X-141373Y180540D02*
Y178272D01*
X-138873D01*
Y-18767D01*
X-141373D01*
Y-21035D01*
X-126373D01*
Y-18767D01*
X-128873D01*
Y178272D01*
X-126373D01*
Y180540D01*
X-141373D01*
G37*
G36*
G01X-161373Y-21034D02*
Y-18767D01*
X-101373D01*
Y-21034D01*
X-161373D01*
G37*
G36*
G01Y178272D02*
Y180540D01*
X-101373D01*
Y178272D01*
X-161373D01*
G37*
G54D10*
X28740Y135827D03*
X42981Y-97539D03*
X51575Y33858D03*
X55118Y57087D03*
X44882D03*
X41339Y101181D03*
Y92520D03*
X57087Y135827D03*
X38189D03*
X72835Y33858D03*
X79371Y80946D03*
X62598Y105511D03*
X88189Y101969D03*
X66579Y97638D03*
X73622Y96063D03*
X79134Y105906D03*
X86614Y122047D03*
X73228Y119335D03*
X87008Y142913D03*
X113386Y125197D03*
Y116142D03*
X101181Y125591D03*
Y114173D03*
X116929Y150787D03*
X130315Y38976D03*
Y84646D03*
Y137795D03*
G54D11*
G01X-169267Y-38648D02*
Y-34711D01*
X-168480D01*
X-168165Y-34908D01*
X-167928Y-35171D01*
X-167731Y-35565D01*
X-167574Y-36024D01*
X-167535Y-36680D01*
X-167574Y-37336D01*
X-167731Y-37795D01*
X-167928Y-38189D01*
X-168165Y-38452D01*
X-168480Y-38648D01*
X-169267D01*
G01X-164651D02*
X-166226D01*
Y-34711D01*
X-164651D01*
G01X-165281Y-36614D02*
X-166226D01*
G01X-163303Y-38124D02*
X-162988Y-38452D01*
X-162634Y-38648D01*
X-162319D01*
X-162004Y-38452D01*
X-161768Y-38124D01*
X-161650Y-37664D01*
X-161728Y-37205D01*
X-161925Y-36811D01*
X-162280Y-36549D01*
X-162752Y-36417D01*
X-163028Y-36155D01*
X-163146Y-35696D01*
X-163067Y-35236D01*
X-162870Y-34908D01*
X-162594Y-34711D01*
X-162319D01*
X-162043Y-34843D01*
X-161807Y-35171D01*
G01X-159987Y-34711D02*
X-159042D01*
G01X-159514D02*
Y-38648D01*
G01X-159987D02*
X-159042D01*
G01X-156316Y-36680D02*
X-155528D01*
Y-37861D01*
X-155765Y-38255D01*
X-156040Y-38517D01*
X-156434Y-38648D01*
X-156828Y-38517D01*
X-157103Y-38255D01*
X-157339Y-37861D01*
X-157497Y-37402D01*
X-157576Y-36877D01*
Y-36417D01*
X-157497Y-36024D01*
X-157339Y-35565D01*
X-157103Y-35171D01*
X-156867Y-34908D01*
X-156552Y-34711D01*
X-156276D01*
X-155961Y-34843D01*
X-155725Y-35105D01*
G01X-154495Y-38648D02*
Y-34711D01*
X-152684Y-38648D01*
Y-34711D01*
G01X-146799Y-35039D02*
X-147035Y-34843D01*
X-147311Y-34711D01*
X-147626D01*
X-147980Y-34908D01*
X-148256Y-35236D01*
X-148453Y-35630D01*
X-148610Y-36286D01*
X-148650Y-36877D01*
X-148571Y-37467D01*
X-148453Y-37861D01*
X-148217Y-38255D01*
X-147941Y-38517D01*
X-147665Y-38648D01*
X-147390D01*
X-147114Y-38517D01*
X-146878Y-38320D01*
X-146681Y-38058D01*
G01X-145491Y-38648D02*
Y-34711D01*
X-144506D01*
X-144191Y-34908D01*
X-143994Y-35171D01*
X-143916Y-35696D01*
X-143994Y-36220D01*
X-144231Y-36549D01*
X-144506Y-36746D01*
X-145491D01*
G01X-144506D02*
X-143916Y-38648D01*
G01X-141741D02*
X-142056Y-38583D01*
X-142331Y-38320D01*
X-142568Y-37927D01*
X-142725Y-37467D01*
X-142804Y-36943D01*
Y-36417D01*
X-142725Y-35893D01*
X-142568Y-35433D01*
X-142331Y-35039D01*
X-142056Y-34777D01*
X-141741Y-34711D01*
X-141426Y-34777D01*
X-141150Y-35039D01*
X-140914Y-35433D01*
X-140757Y-35893D01*
X-140678Y-36417D01*
Y-36943D01*
X-140757Y-37467D01*
X-140914Y-37927D01*
X-141150Y-38320D01*
X-141426Y-38583D01*
X-141741Y-38648D01*
G01X-139606Y-38124D02*
X-139291Y-38452D01*
X-138936Y-38648D01*
X-138621D01*
X-138306Y-38452D01*
X-138070Y-38124D01*
X-137952Y-37664D01*
X-138031Y-37205D01*
X-138228Y-36811D01*
X-138582Y-36549D01*
X-139054Y-36417D01*
X-139330Y-36155D01*
X-139448Y-35696D01*
X-139369Y-35236D01*
X-139172Y-34908D01*
X-138897Y-34711D01*
X-138621D01*
X-138346Y-34843D01*
X-138109Y-35171D01*
G01X-136643Y-38124D02*
X-136328Y-38452D01*
X-135974Y-38648D01*
X-135659D01*
X-135344Y-38452D01*
X-135108Y-38124D01*
X-134990Y-37664D01*
X-135069Y-37205D01*
X-135265Y-36811D01*
X-135620Y-36549D01*
X-136092Y-36417D01*
X-136368Y-36155D01*
X-136486Y-35696D01*
X-136407Y-35236D01*
X-136210Y-34908D01*
X-135935Y-34711D01*
X-135659D01*
X-135383Y-34843D01*
X-135147Y-35171D01*
G01X-130719Y-38124D02*
X-130404Y-38452D01*
X-130050Y-38648D01*
X-129735D01*
X-129420Y-38452D01*
X-129183Y-38124D01*
X-129065Y-37664D01*
X-129144Y-37205D01*
X-129341Y-36811D01*
X-129695Y-36549D01*
X-130168Y-36417D01*
X-130443Y-36155D01*
X-130561Y-35696D01*
X-130483Y-35236D01*
X-130286Y-34908D01*
X-130010Y-34711D01*
X-129735D01*
X-129459Y-34843D01*
X-129223Y-35171D01*
G01X-126143Y-38648D02*
X-127717D01*
Y-34711D01*
X-126143D01*
G01X-126772Y-36614D02*
X-127717D01*
G01X-123102Y-35039D02*
X-123338Y-34843D01*
X-123613Y-34711D01*
X-123928D01*
X-124283Y-34908D01*
X-124558Y-35236D01*
X-124755Y-35630D01*
X-124913Y-36286D01*
X-124952Y-36877D01*
X-124873Y-37467D01*
X-124755Y-37861D01*
X-124519Y-38255D01*
X-124243Y-38517D01*
X-123968Y-38648D01*
X-123692D01*
X-123417Y-38517D01*
X-123180Y-38320D01*
X-122983Y-38058D01*
G01X-121006Y-34711D02*
Y-38648D01*
G01X-121911Y-34711D02*
X-120100D01*
G01X-118516D02*
X-117571D01*
G01X-118043D02*
Y-38648D01*
G01X-118516D02*
X-117571D01*
G01X-115081D02*
X-115396Y-38583D01*
X-115672Y-38320D01*
X-115908Y-37927D01*
X-116065Y-37467D01*
X-116144Y-36943D01*
Y-36417D01*
X-116065Y-35893D01*
X-115908Y-35433D01*
X-115672Y-35039D01*
X-115396Y-34777D01*
X-115081Y-34711D01*
X-114766Y-34777D01*
X-114491Y-35039D01*
X-114254Y-35433D01*
X-114097Y-35893D01*
X-114018Y-36417D01*
Y-36943D01*
X-114097Y-37467D01*
X-114254Y-37927D01*
X-114491Y-38320D01*
X-114766Y-38583D01*
X-115081Y-38648D01*
G01X-113024D02*
Y-34711D01*
X-111213Y-38648D01*
Y-34711D01*
G01X-105328Y-35039D02*
X-105565Y-34843D01*
X-105840Y-34711D01*
X-106155D01*
X-106509Y-34908D01*
X-106785Y-35236D01*
X-106982Y-35630D01*
X-107139Y-36286D01*
X-107179Y-36877D01*
X-107100Y-37467D01*
X-106982Y-37861D01*
X-106746Y-38255D01*
X-106470Y-38517D01*
X-106194Y-38648D01*
X-105919D01*
X-105643Y-38517D01*
X-105407Y-38320D01*
X-105210Y-38058D01*
G01X-104059Y-38648D02*
Y-34711D01*
G01X-102406D02*
Y-38648D01*
G01Y-36680D02*
X-104059D01*
G01X-101254Y-38648D02*
X-100270Y-34711D01*
X-99286Y-38648D01*
G01X-99640Y-37270D02*
X-100900D01*
G01X-98095Y-38648D02*
Y-34711D01*
X-97111D01*
X-96796Y-34908D01*
X-96599Y-35171D01*
X-96520Y-35696D01*
X-96599Y-36220D01*
X-96835Y-36549D01*
X-97111Y-36746D01*
X-98095D01*
G01X-97111D02*
X-96520Y-38648D01*
G01X-94346Y-34711D02*
Y-38648D01*
G01X-95251Y-34711D02*
X-93440D01*
G01X-171063Y-39961D02*
X-168701D01*
G01X-168101D02*
X-165739D01*
G01X-165139D02*
X-162776D01*
G01X-162176D02*
X-159814D01*
G01X-159214D02*
X-156852D01*
G01X-156252D02*
X-153890D01*
G01X-153290D02*
X-150928D01*
G01X-150328D02*
X-147965D01*
G01X-147365D02*
X-145003D01*
G01X-144403D02*
X-142041D01*
G01X-141441D02*
X-139079D01*
G01X-138479D02*
X-136117D01*
G01X-135517D02*
X-133154D01*
G01X-132554D02*
X-130192D01*
G01X-129592D02*
X-127230D01*
G01X-126630D02*
X-124268D01*
G01X-123668D02*
X-121306D01*
G01X-120706D02*
X-118343D01*
G01X-117743D02*
X-115381D01*
G01X-114781D02*
X-112419D01*
G01X-111819D02*
X-109457D01*
G01X-108857D02*
X-106494D01*
G01X-105894D02*
X-103532D01*
G01X-102932D02*
X-100570D01*
G01X-99970D02*
X-97608D01*
G01X-97008D02*
X-94646D01*
G01X-94046D02*
X-91683D01*
G01X-162476Y-41798D02*
Y-45735D01*
G01X-163382Y-41798D02*
X-161571D01*
G01X-159514Y-45735D02*
X-159829Y-45669D01*
X-160105Y-45407D01*
X-160341Y-45013D01*
X-160498Y-44554D01*
X-160577Y-44029D01*
Y-43504D01*
X-160498Y-42979D01*
X-160341Y-42520D01*
X-160105Y-42126D01*
X-159829Y-41864D01*
X-159514Y-41798D01*
X-159199Y-41864D01*
X-158924Y-42126D01*
X-158687Y-42520D01*
X-158530Y-42979D01*
X-158451Y-43504D01*
Y-44029D01*
X-158530Y-44554D01*
X-158687Y-45013D01*
X-158924Y-45407D01*
X-159199Y-45669D01*
X-159514Y-45735D01*
G01X-156552Y-41798D02*
Y-45735D01*
G01X-157457Y-41798D02*
X-155646D01*
G01X-154574Y-45735D02*
X-153590Y-41798D01*
X-152606Y-45735D01*
G01X-152960Y-44357D02*
X-154220D01*
G01X-151415Y-41798D02*
Y-45735D01*
X-149840D01*
G01X-144703Y-41798D02*
Y-45735D01*
G01X-145609Y-41798D02*
X-143798D01*
G01X-142568Y-45735D02*
Y-41798D01*
G01X-140914D02*
Y-45735D01*
G01Y-43767D02*
X-142568D01*
G01X-139251Y-41798D02*
X-138306D01*
G01X-138779D02*
Y-45735D01*
G01X-139251D02*
X-138306D01*
G01X-134950Y-42126D02*
X-135187Y-41929D01*
X-135462Y-41798D01*
X-135777D01*
X-136131Y-41995D01*
X-136407Y-42323D01*
X-136604Y-42717D01*
X-136761Y-43373D01*
X-136801Y-43963D01*
X-136722Y-44554D01*
X-136604Y-44948D01*
X-136368Y-45341D01*
X-136092Y-45604D01*
X-135817Y-45735D01*
X-135541D01*
X-135265Y-45604D01*
X-135029Y-45407D01*
X-134832Y-45144D01*
G01X-133720Y-45735D02*
Y-41798D01*
G01X-132224D02*
X-133720Y-44226D01*
G01X-131988Y-45735D02*
X-133051Y-43111D01*
G01X-130798Y-45735D02*
Y-41798D01*
X-128987Y-45735D01*
Y-41798D01*
G01X-126143Y-45735D02*
X-127717D01*
Y-41798D01*
X-126143D01*
G01X-126772Y-43701D02*
X-127717D01*
G01X-124794Y-45210D02*
X-124480Y-45538D01*
X-124125Y-45735D01*
X-123810D01*
X-123495Y-45538D01*
X-123259Y-45210D01*
X-123141Y-44751D01*
X-123220Y-44292D01*
X-123417Y-43898D01*
X-123771Y-43635D01*
X-124243Y-43504D01*
X-124519Y-43242D01*
X-124637Y-42782D01*
X-124558Y-42323D01*
X-124361Y-41995D01*
X-124086Y-41798D01*
X-123810D01*
X-123535Y-41929D01*
X-123298Y-42257D01*
G01X-121832Y-45210D02*
X-121517Y-45538D01*
X-121163Y-45735D01*
X-120848D01*
X-120533Y-45538D01*
X-120297Y-45210D01*
X-120179Y-44751D01*
X-120257Y-44292D01*
X-120454Y-43898D01*
X-120809Y-43635D01*
X-121281Y-43504D01*
X-121557Y-43242D01*
X-121675Y-42782D01*
X-121596Y-42323D01*
X-121399Y-41995D01*
X-121124Y-41798D01*
X-120848D01*
X-120572Y-41929D01*
X-120336Y-42257D01*
G01X-115081Y-45735D02*
Y-41798D01*
X-115554Y-42585D01*
G01Y-45735D02*
X-114609D01*
G01X-112119Y-45866D02*
X-112198Y-45801D01*
Y-45669D01*
X-112119Y-45604D01*
X-112040Y-45669D01*
Y-45801D01*
X-112119Y-45866D01*
G01X-109905Y-44095D02*
X-109629Y-43635D01*
X-109393Y-43373D01*
X-109078Y-43242D01*
X-108802Y-43373D01*
X-108606Y-43635D01*
X-108448Y-44029D01*
X-108409Y-44488D01*
X-108448Y-44882D01*
X-108606Y-45276D01*
X-108842Y-45604D01*
X-109117Y-45735D01*
X-109432Y-45604D01*
X-109708Y-45210D01*
X-109865Y-44620D01*
X-109905Y-43963D01*
X-109826Y-43111D01*
X-109708Y-42651D01*
X-109511Y-42192D01*
X-109235Y-41864D01*
X-108960Y-41798D01*
X-108684Y-41929D01*
X-108487Y-42257D01*
G01X-104256Y-45735D02*
Y-41798D01*
X-103232Y-45079D01*
X-102209Y-41798D01*
Y-45735D01*
G01X-101294D02*
Y-41798D01*
X-100270Y-45079D01*
X-99246Y-41798D01*
Y-45735D01*
G01X-133873Y185658D02*
X-137810D01*
X-137023Y185185D01*
G01X-133873D02*
Y186130D01*
G01X-135185Y188108D02*
Y189132D01*
G01X-137154Y190834D02*
X-137548Y191070D01*
X-137744Y191346D01*
X-137810Y191661D01*
X-137679Y192055D01*
X-137351Y192330D01*
X-136957Y192409D01*
X-136563Y192370D01*
X-136235Y192212D01*
X-135579Y191425D01*
X-135120Y191070D01*
X-134464Y190834D01*
X-133873Y190756D01*
Y192409D01*
G01X-98017Y-20079D02*
Y-24016D01*
X-96443D01*
G01X-95016Y-20735D02*
X-94780Y-20342D01*
X-94504Y-20145D01*
X-94189Y-20079D01*
X-93795Y-20210D01*
X-93520Y-20539D01*
X-93441Y-20932D01*
X-93480Y-21326D01*
X-93638Y-21654D01*
X-94425Y-22310D01*
X-94780Y-22769D01*
X-95016Y-23426D01*
X-95094Y-24016D01*
X-93441D01*
G01X-88028Y-21917D02*
X-87871Y-21720D01*
X-87753Y-21392D01*
X-87674Y-20932D01*
X-87753Y-20539D01*
X-87910Y-20276D01*
X-88186Y-20079D01*
X-89249D01*
Y-24016D01*
X-87950D01*
X-87674Y-23754D01*
X-87517Y-23360D01*
X-87438Y-22901D01*
X-87517Y-22441D01*
X-87753Y-22048D01*
X-88028Y-21917D01*
X-89249D01*
G01X-85381Y-24016D02*
X-85696Y-23950D01*
X-85972Y-23688D01*
X-86208Y-23294D01*
X-86365Y-22835D01*
X-86444Y-22310D01*
Y-21785D01*
X-86365Y-21260D01*
X-86208Y-20801D01*
X-85972Y-20407D01*
X-85696Y-20145D01*
X-85381Y-20079D01*
X-85066Y-20145D01*
X-84791Y-20407D01*
X-84554Y-20801D01*
X-84397Y-21260D01*
X-84318Y-21785D01*
Y-22310D01*
X-84397Y-22835D01*
X-84554Y-23294D01*
X-84791Y-23688D01*
X-85066Y-23950D01*
X-85381Y-24016D01*
G01X-82419Y-20079D02*
Y-24016D01*
G01X-83324Y-20079D02*
X-81513D01*
G01X-79457D02*
Y-24016D01*
G01X-80362Y-20079D02*
X-78551D01*
G01X-76494Y-24016D02*
X-76809Y-23950D01*
X-77085Y-23688D01*
X-77321Y-23294D01*
X-77479Y-22835D01*
X-77557Y-22310D01*
Y-21785D01*
X-77479Y-21260D01*
X-77321Y-20801D01*
X-77085Y-20407D01*
X-76809Y-20145D01*
X-76494Y-20079D01*
X-76180Y-20145D01*
X-75904Y-20407D01*
X-75668Y-20801D01*
X-75510Y-21260D01*
X-75431Y-21785D01*
Y-22310D01*
X-75510Y-22835D01*
X-75668Y-23294D01*
X-75904Y-23688D01*
X-76180Y-23950D01*
X-76494Y-24016D01*
G01X-74556D02*
Y-20079D01*
X-73532Y-23360D01*
X-72509Y-20079D01*
Y-24016D01*
G01X-66742Y-20407D02*
X-66978Y-20210D01*
X-67254Y-20079D01*
X-67569D01*
X-67923Y-20276D01*
X-68198Y-20604D01*
X-68395Y-20998D01*
X-68553Y-21654D01*
X-68592Y-22244D01*
X-68513Y-22835D01*
X-68395Y-23229D01*
X-68159Y-23622D01*
X-67883Y-23885D01*
X-67608Y-24016D01*
X-67332D01*
X-67057Y-23885D01*
X-66820Y-23688D01*
X-66624Y-23426D01*
G01X-64646Y-24016D02*
X-64961Y-23950D01*
X-65236Y-23688D01*
X-65472Y-23294D01*
X-65630Y-22835D01*
X-65709Y-22310D01*
Y-21785D01*
X-65630Y-21260D01*
X-65472Y-20801D01*
X-65236Y-20407D01*
X-64961Y-20145D01*
X-64646Y-20079D01*
X-64331Y-20145D01*
X-64055Y-20407D01*
X-63819Y-20801D01*
X-63661Y-21260D01*
X-63583Y-21785D01*
Y-22310D01*
X-63661Y-22835D01*
X-63819Y-23294D01*
X-64055Y-23688D01*
X-64331Y-23950D01*
X-64646Y-24016D01*
G01X-62589D02*
Y-20079D01*
X-60778Y-24016D01*
Y-20079D01*
G01X-59587Y-24016D02*
Y-20079D01*
X-58800D01*
X-58485Y-20276D01*
X-58249Y-20539D01*
X-58052Y-20932D01*
X-57894Y-21392D01*
X-57855Y-22048D01*
X-57894Y-22704D01*
X-58052Y-23163D01*
X-58249Y-23557D01*
X-58485Y-23819D01*
X-58800Y-24016D01*
X-59587D01*
G01X-56625Y-20079D02*
Y-22901D01*
X-56468Y-23491D01*
X-56153Y-23885D01*
X-55759Y-24016D01*
X-55365Y-23885D01*
X-55050Y-23491D01*
X-54893Y-22901D01*
Y-20079D01*
G01X-51931Y-20407D02*
X-52167Y-20210D01*
X-52443Y-20079D01*
X-52757D01*
X-53112Y-20276D01*
X-53387Y-20604D01*
X-53584Y-20998D01*
X-53742Y-21654D01*
X-53781Y-22244D01*
X-53702Y-22835D01*
X-53584Y-23229D01*
X-53348Y-23622D01*
X-53072Y-23885D01*
X-52797Y-24016D01*
X-52521D01*
X-52246Y-23885D01*
X-52009Y-23688D01*
X-51813Y-23426D01*
G01X-49835Y-20079D02*
Y-24016D01*
G01X-50740Y-20079D02*
X-48929D01*
G01X-46872Y-24016D02*
X-47187Y-23950D01*
X-47463Y-23688D01*
X-47699Y-23294D01*
X-47857Y-22835D01*
X-47935Y-22310D01*
Y-21785D01*
X-47857Y-21260D01*
X-47699Y-20801D01*
X-47463Y-20407D01*
X-47187Y-20145D01*
X-46872Y-20079D01*
X-46557Y-20145D01*
X-46282Y-20407D01*
X-46046Y-20801D01*
X-45888Y-21260D01*
X-45809Y-21785D01*
Y-22310D01*
X-45888Y-22835D01*
X-46046Y-23294D01*
X-46282Y-23688D01*
X-46557Y-23950D01*
X-46872Y-24016D01*
G01X-44698D02*
Y-20079D01*
X-43713D01*
X-43398Y-20276D01*
X-43202Y-20539D01*
X-43123Y-21063D01*
X-43202Y-21588D01*
X-43438Y-21917D01*
X-43713Y-22113D01*
X-44698D01*
G01X-43713D02*
X-43123Y-24016D01*
G01X-92172Y-29396D02*
X-90439Y-26509D01*
G01X-91306Y-25985D02*
Y-29922D01*
G01X-90439Y-29396D02*
X-92172Y-26509D01*
G01X-92487Y-27953D02*
X-90124D01*
G01X-83246Y-28741D02*
X-82931Y-29069D01*
X-82576Y-29265D01*
X-82261D01*
X-81946Y-29069D01*
X-81710Y-28741D01*
X-81592Y-28281D01*
X-81671Y-27822D01*
X-81868Y-27428D01*
X-82222Y-27166D01*
X-82694Y-27034D01*
X-82970Y-26772D01*
X-83088Y-26313D01*
X-83009Y-25853D01*
X-82813Y-25525D01*
X-82537Y-25328D01*
X-82261D01*
X-81986Y-25459D01*
X-81750Y-25788D01*
G01X-80323Y-25328D02*
Y-28150D01*
X-80165Y-28741D01*
X-79850Y-29134D01*
X-79457Y-29265D01*
X-79063Y-29134D01*
X-78748Y-28741D01*
X-78591Y-28150D01*
Y-25328D01*
G01X-77282Y-29265D02*
Y-25328D01*
X-76298D01*
X-75983Y-25525D01*
X-75786Y-25788D01*
X-75707Y-26313D01*
X-75786Y-26837D01*
X-76022Y-27166D01*
X-76298Y-27363D01*
X-77282D01*
G01X-76298D02*
X-75707Y-29265D01*
G01X-74280D02*
Y-25328D01*
X-72784D01*
G01X-73335Y-27231D02*
X-74280D01*
G01X-71554Y-29265D02*
X-70570Y-25328D01*
X-69586Y-29265D01*
G01X-69940Y-27887D02*
X-71200D01*
G01X-66742Y-25656D02*
X-66978Y-25459D01*
X-67254Y-25328D01*
X-67569D01*
X-67923Y-25525D01*
X-68198Y-25853D01*
X-68395Y-26247D01*
X-68553Y-26903D01*
X-68592Y-27494D01*
X-68513Y-28084D01*
X-68395Y-28478D01*
X-68159Y-28872D01*
X-67883Y-29134D01*
X-67608Y-29265D01*
X-67332D01*
X-67057Y-29134D01*
X-66820Y-28937D01*
X-66624Y-28675D01*
G01X-63858Y-29265D02*
X-65433D01*
Y-25328D01*
X-63858D01*
G01X-64488Y-27231D02*
X-65433D01*
G01X-92172Y79622D02*
X-90439Y82509D01*
G01X-91306Y83033D02*
Y79096D01*
G01X-90439Y79622D02*
X-92172Y82509D01*
G01X-92487Y81065D02*
X-90124D01*
G01X-83285Y79753D02*
Y83690D01*
X-82498D01*
X-82183Y83493D01*
X-81946Y83230D01*
X-81750Y82837D01*
X-81592Y82377D01*
X-81553Y81721D01*
X-81592Y81065D01*
X-81750Y80606D01*
X-81946Y80212D01*
X-82183Y79950D01*
X-82498Y79753D01*
X-83285D01*
G01X-79929Y83690D02*
X-78984D01*
G01X-79457D02*
Y79753D01*
G01X-79929D02*
X-78984D01*
G01X-75707D02*
X-77282D01*
Y83690D01*
X-75707D01*
G01X-76337Y81787D02*
X-77282D01*
G01X-74320Y83690D02*
Y79753D01*
X-72745D01*
G01X-69783D02*
X-71357D01*
Y83690D01*
X-69783D01*
G01X-70413Y81787D02*
X-71357D01*
G01X-66742Y83362D02*
X-66978Y83559D01*
X-67254Y83690D01*
X-67569D01*
X-67923Y83493D01*
X-68198Y83165D01*
X-68395Y82771D01*
X-68553Y82115D01*
X-68592Y81524D01*
X-68513Y80934D01*
X-68395Y80540D01*
X-68159Y80146D01*
X-67883Y79884D01*
X-67608Y79753D01*
X-67332D01*
X-67057Y79884D01*
X-66820Y80081D01*
X-66624Y80343D01*
G01X-64646Y83690D02*
Y79753D01*
G01X-65551Y83690D02*
X-63740D01*
G01X-62471Y79753D02*
Y83690D01*
X-61487D01*
X-61172Y83493D01*
X-60975Y83230D01*
X-60896Y82706D01*
X-60975Y82181D01*
X-61211Y81852D01*
X-61487Y81656D01*
X-62471D01*
G01X-61487D02*
X-60896Y79753D01*
G01X-59194Y83690D02*
X-58249D01*
G01X-58721D02*
Y79753D01*
G01X-59194D02*
X-58249D01*
G01X-54893Y83362D02*
X-55129Y83559D01*
X-55405Y83690D01*
X-55720D01*
X-56074Y83493D01*
X-56350Y83165D01*
X-56546Y82771D01*
X-56704Y82115D01*
X-56743Y81524D01*
X-56665Y80934D01*
X-56546Y80540D01*
X-56310Y80146D01*
X-56035Y79884D01*
X-55759Y79753D01*
X-55483D01*
X-55208Y79884D01*
X-54972Y80081D01*
X-54775Y80343D01*
G01X-92172Y181721D02*
X-90439Y184608D01*
G01X-91306Y185133D02*
Y181196D01*
G01X-90439Y181721D02*
X-92172Y184608D01*
G01X-92487Y183164D02*
X-90124D01*
G01X-83246Y182377D02*
X-82931Y182049D01*
X-82576Y181852D01*
X-82261D01*
X-81946Y182049D01*
X-81710Y182377D01*
X-81592Y182836D01*
X-81671Y183295D01*
X-81868Y183689D01*
X-82222Y183952D01*
X-82694Y184083D01*
X-82970Y184345D01*
X-83088Y184805D01*
X-83009Y185264D01*
X-82813Y185592D01*
X-82537Y185789D01*
X-82261D01*
X-81986Y185658D01*
X-81750Y185330D01*
G01X-80323Y185789D02*
Y182967D01*
X-80165Y182377D01*
X-79850Y181983D01*
X-79457Y181852D01*
X-79063Y181983D01*
X-78748Y182377D01*
X-78591Y182967D01*
Y185789D01*
G01X-77282Y181852D02*
Y185789D01*
X-76298D01*
X-75983Y185592D01*
X-75786Y185330D01*
X-75707Y184805D01*
X-75786Y184280D01*
X-76022Y183952D01*
X-76298Y183755D01*
X-77282D01*
G01X-76298D02*
X-75707Y181852D01*
G01X-74280D02*
Y185789D01*
X-72784D01*
G01X-73335Y183886D02*
X-74280D01*
G01X-71554Y181852D02*
X-70570Y185789D01*
X-69586Y181852D01*
G01X-69940Y183230D02*
X-71200D01*
G01X-66742Y185461D02*
X-66978Y185658D01*
X-67254Y185789D01*
X-67569D01*
X-67923Y185592D01*
X-68198Y185264D01*
X-68395Y184870D01*
X-68553Y184214D01*
X-68592Y183624D01*
X-68513Y183033D01*
X-68395Y182639D01*
X-68159Y182246D01*
X-67883Y181983D01*
X-67608Y181852D01*
X-67332D01*
X-67057Y181983D01*
X-66820Y182180D01*
X-66624Y182443D01*
G01X-63858Y181852D02*
X-65433D01*
Y185789D01*
X-63858D01*
G01X-64488Y183886D02*
X-65433D01*
G01X-98017Y179228D02*
Y175291D01*
X-96443D01*
G01X-94268D02*
Y179228D01*
X-94740Y178440D01*
G01Y175291D02*
X-93795D01*
G01X-88343Y179228D02*
Y175291D01*
G01X-89249Y179228D02*
X-87438D01*
G01X-85381Y175291D02*
X-85696Y175356D01*
X-85972Y175619D01*
X-86208Y176012D01*
X-86365Y176472D01*
X-86444Y176996D01*
Y177522D01*
X-86365Y178046D01*
X-86208Y178506D01*
X-85972Y178900D01*
X-85696Y179162D01*
X-85381Y179228D01*
X-85066Y179162D01*
X-84791Y178900D01*
X-84554Y178506D01*
X-84397Y178046D01*
X-84318Y177522D01*
Y176996D01*
X-84397Y176472D01*
X-84554Y176012D01*
X-84791Y175619D01*
X-85066Y175356D01*
X-85381Y175291D01*
G01X-83206D02*
Y179228D01*
X-82261D01*
X-81946Y179031D01*
X-81710Y178571D01*
X-81631Y178046D01*
X-81710Y177522D01*
X-81907Y177128D01*
X-82261Y176931D01*
X-83206D01*
G01X-75628Y178900D02*
X-75865Y179096D01*
X-76140Y179228D01*
X-76455D01*
X-76809Y179031D01*
X-77085Y178703D01*
X-77282Y178309D01*
X-77439Y177653D01*
X-77479Y177062D01*
X-77400Y176472D01*
X-77282Y176078D01*
X-77046Y175684D01*
X-76770Y175422D01*
X-76494Y175291D01*
X-76219D01*
X-75943Y175422D01*
X-75707Y175619D01*
X-75510Y175881D01*
G01X-73532Y175291D02*
X-73847Y175356D01*
X-74123Y175619D01*
X-74359Y176012D01*
X-74517Y176472D01*
X-74595Y176996D01*
Y177522D01*
X-74517Y178046D01*
X-74359Y178506D01*
X-74123Y178900D01*
X-73847Y179162D01*
X-73532Y179228D01*
X-73217Y179162D01*
X-72942Y178900D01*
X-72706Y178506D01*
X-72548Y178046D01*
X-72469Y177522D01*
Y176996D01*
X-72548Y176472D01*
X-72706Y176012D01*
X-72942Y175619D01*
X-73217Y175356D01*
X-73532Y175291D01*
G01X-71476D02*
Y179228D01*
X-69665Y175291D01*
Y179228D01*
G01X-68474Y175291D02*
Y179228D01*
X-67687D01*
X-67372Y179031D01*
X-67135Y178768D01*
X-66939Y178374D01*
X-66781Y177915D01*
X-66742Y177259D01*
X-66781Y176603D01*
X-66939Y176144D01*
X-67135Y175750D01*
X-67372Y175487D01*
X-67687Y175291D01*
X-68474D01*
G01X-65512Y179228D02*
Y176406D01*
X-65354Y175815D01*
X-65039Y175422D01*
X-64646Y175291D01*
X-64252Y175422D01*
X-63937Y175815D01*
X-63780Y176406D01*
Y179228D01*
G01X-60817Y178900D02*
X-61054Y179096D01*
X-61329Y179228D01*
X-61644D01*
X-61998Y179031D01*
X-62274Y178703D01*
X-62471Y178309D01*
X-62628Y177653D01*
X-62668Y177062D01*
X-62589Y176472D01*
X-62471Y176078D01*
X-62235Y175684D01*
X-61959Y175422D01*
X-61683Y175291D01*
X-61408D01*
X-61132Y175422D01*
X-60896Y175619D01*
X-60699Y175881D01*
G01X-58721Y179228D02*
Y175291D01*
G01X-59627Y179228D02*
X-57816D01*
G01X-55759Y175291D02*
X-56074Y175356D01*
X-56350Y175619D01*
X-56586Y176012D01*
X-56743Y176472D01*
X-56822Y176996D01*
Y177522D01*
X-56743Y178046D01*
X-56586Y178506D01*
X-56350Y178900D01*
X-56074Y179162D01*
X-55759Y179228D01*
X-55444Y179162D01*
X-55169Y178900D01*
X-54932Y178506D01*
X-54775Y178046D01*
X-54696Y177522D01*
Y176996D01*
X-54775Y176472D01*
X-54932Y176012D01*
X-55169Y175619D01*
X-55444Y175356D01*
X-55759Y175291D01*
G01X-53584D02*
Y179228D01*
X-52600D01*
X-52285Y179031D01*
X-52088Y178768D01*
X-52009Y178243D01*
X-52088Y177719D01*
X-52324Y177390D01*
X-52600Y177193D01*
X-53584D01*
G01X-52600D02*
X-52009Y175291D01*
G54D12*
G01X-161373Y-18767D02*
Y178272D01*
X-101373D01*
Y-18767D01*
X-161373D01*
G01X-1969Y-110039D02*
Y-9449D01*
X494031D01*
Y-110039D01*
X-1969D01*
G01X9036Y-78789D02*
Y-66289D01*
X14927D01*
G01X12756Y-72331D02*
X9036D01*
G01X22522Y-66289D02*
X26241D01*
G01X24381D02*
Y-78789D01*
G01X22522D02*
X26241D01*
G01X37711Y-72539D02*
X40812D01*
Y-76289D01*
X39881Y-77540D01*
X38796Y-78373D01*
X37246Y-78789D01*
X35696Y-78373D01*
X34611Y-77540D01*
X33681Y-76289D01*
X33061Y-74831D01*
X32751Y-73165D01*
Y-71706D01*
X33061Y-70456D01*
X33681Y-68998D01*
X34611Y-67748D01*
X35541Y-66915D01*
X36781Y-66289D01*
X37867D01*
X39106Y-66706D01*
X40037Y-67539D01*
G01X45772Y-66289D02*
Y-75248D01*
X46391Y-77123D01*
X47631Y-78373D01*
X49181Y-78789D01*
X50731Y-78373D01*
X51972Y-77123D01*
X52591Y-75248D01*
Y-66289D01*
G01X58481Y-78789D02*
Y-66289D01*
X62356D01*
X63596Y-66915D01*
X64372Y-67748D01*
X64681Y-69415D01*
X64372Y-71081D01*
X63441Y-72122D01*
X62356Y-72748D01*
X58481D01*
G01X62356D02*
X64681Y-78789D01*
G01X77081D02*
X70881D01*
Y-66289D01*
X77081D01*
G01X74602Y-72331D02*
X70881D01*
G01X-1969Y-85039D02*
X494031D01*
G01X-1969Y-60039D02*
X494031D01*
G01X-1969Y-35039D02*
X494031D01*
G01X0Y0D02*
Y157480D01*
X157480D01*
Y0D01*
X0D01*
G01Y172441D02*
Y186220D01*
G01X54972Y176378D02*
X0D01*
G01X15748Y178839D02*
X0Y176378D01*
X15748Y173917D01*
Y178839D01*
G01X74756Y-53789D02*
X78631Y-41289D01*
X82507Y-53789D01*
G01X81111Y-49415D02*
X76151D01*
G01X87931Y-41289D02*
Y-53789D01*
X94131D01*
G01X100331Y-41289D02*
Y-53789D01*
X106531D01*
G01X124822Y-41289D02*
Y-50248D01*
X125441Y-52123D01*
X126681Y-53373D01*
X128231Y-53789D01*
X129781Y-53373D01*
X131022Y-52123D01*
X131641Y-50248D01*
Y-41289D01*
G01X137067Y-53789D02*
Y-41289D01*
X144196Y-53789D01*
Y-41289D01*
G01X151172D02*
X154891D01*
G01X153031D02*
Y-53789D01*
G01X151172D02*
X154891D01*
G01X165431Y-41289D02*
Y-53789D01*
G01X161867Y-41289D02*
X168996D01*
G01X174576Y-52123D02*
X175817Y-53165D01*
X177211Y-53789D01*
X178452D01*
X179691Y-53165D01*
X180622Y-52123D01*
X181087Y-50664D01*
X180777Y-49206D01*
X180002Y-47956D01*
X178606Y-47122D01*
X176746Y-46706D01*
X175661Y-45873D01*
X175196Y-44415D01*
X175507Y-42956D01*
X176281Y-41915D01*
X177367Y-41289D01*
X178452D01*
X179537Y-41706D01*
X180467Y-42748D01*
G01X198756Y-53789D02*
X202631Y-41289D01*
X206507Y-53789D01*
G01X205111Y-49415D02*
X200151D01*
G01X211931Y-53789D02*
Y-41289D01*
X215806D01*
X217046Y-41915D01*
X217822Y-42748D01*
X218131Y-44415D01*
X217822Y-46081D01*
X216891Y-47122D01*
X215806Y-47748D01*
X211931D01*
G01X215806D02*
X218131Y-53789D01*
G01X230531D02*
X224331D01*
Y-41289D01*
X230531D01*
G01X228052Y-47331D02*
X224331D01*
G01X250372Y-41289D02*
X254091D01*
G01X252231D02*
Y-53789D01*
G01X250372D02*
X254091D01*
G01X261067D02*
Y-41289D01*
X268196Y-53789D01*
Y-41289D01*
G01X285401Y-53789D02*
Y-41289D01*
X289431Y-51706D01*
X293462Y-41289D01*
Y-53789D01*
G01X299972Y-41289D02*
X303691D01*
G01X301831D02*
Y-53789D01*
G01X299972D02*
X303691D01*
G01X311131Y-41289D02*
Y-53789D01*
X317331D01*
G01X323531Y-41289D02*
Y-53789D01*
X329731D01*
G01X337172Y-41289D02*
X340891D01*
G01X339031D02*
Y-53789D01*
G01X337172D02*
X340891D01*
G01X347401D02*
Y-41289D01*
X351431Y-51706D01*
X355462Y-41289D01*
Y-53789D01*
G01X366931D02*
X360731D01*
Y-41289D01*
X366931D01*
G01X364452Y-47331D02*
X360731D01*
G01X376231Y-41289D02*
Y-53789D01*
G01X372667Y-41289D02*
X379796D01*
G01X391731Y-53789D02*
X385531D01*
Y-41289D01*
X391731D01*
G01X389252Y-47331D02*
X385531D01*
G01X397931Y-53789D02*
Y-41289D01*
X401806D01*
X403046Y-41915D01*
X403822Y-42748D01*
X404131Y-44415D01*
X403822Y-46081D01*
X402891Y-47122D01*
X401806Y-47748D01*
X397931D01*
G01X401806D02*
X404131Y-53789D01*
G01X410176Y-52123D02*
X411417Y-53165D01*
X412811Y-53789D01*
X414052D01*
X415291Y-53165D01*
X416222Y-52123D01*
X416687Y-50664D01*
X416377Y-49206D01*
X415602Y-47956D01*
X414206Y-47122D01*
X412346Y-46706D01*
X411261Y-45873D01*
X410796Y-44415D01*
X411107Y-42956D01*
X411881Y-41915D01*
X412967Y-41289D01*
X414052D01*
X415137Y-41706D01*
X416067Y-42748D01*
G01X87622Y-28199D02*
Y-15699D01*
X90721D01*
X91961Y-16324D01*
X92891Y-17157D01*
X93667Y-18407D01*
X94287Y-19866D01*
X94441Y-21949D01*
X94287Y-24032D01*
X93667Y-25491D01*
X92891Y-26741D01*
X91961Y-27574D01*
X90721Y-28199D01*
X87622D01*
G01X100331D02*
Y-15699D01*
X104206D01*
X105446Y-16324D01*
X106222Y-17157D01*
X106531Y-18824D01*
X106222Y-20491D01*
X105291Y-21532D01*
X104206Y-22157D01*
X100331D01*
G01X104206D02*
X106531Y-28199D01*
G01X113972Y-15699D02*
X117691D01*
G01X115831D02*
Y-28199D01*
G01X113972D02*
X117691D01*
G01X125131Y-15699D02*
Y-28199D01*
X131331D01*
G01X137531Y-15699D02*
Y-28199D01*
X143731D01*
G01X168841Y-16741D02*
X167911Y-16115D01*
X166827Y-15699D01*
X165587D01*
X164191Y-16324D01*
X163107Y-17365D01*
X162331Y-18616D01*
X161711Y-20699D01*
X161556Y-22574D01*
X161867Y-24449D01*
X162331Y-25699D01*
X163261Y-26949D01*
X164346Y-27782D01*
X165431Y-28199D01*
X166517D01*
X167602Y-27782D01*
X168531Y-27157D01*
X169307Y-26324D01*
G01X174576Y-28199D02*
Y-15699D01*
G01X181087D02*
Y-28199D01*
G01Y-21949D02*
X174576D01*
G01X186356Y-28199D02*
X190231Y-15699D01*
X194107Y-28199D01*
G01X192711Y-23824D02*
X187751D01*
G01X199531Y-28199D02*
Y-15699D01*
X203406D01*
X204646Y-16324D01*
X205422Y-17157D01*
X205731Y-18824D01*
X205422Y-20491D01*
X204491Y-21532D01*
X203406Y-22157D01*
X199531D01*
G01X203406D02*
X205731Y-28199D01*
G01X215031Y-15699D02*
Y-28199D01*
G01X211467Y-15699D02*
X218596D01*
G01X227431Y-28615D02*
X227121Y-28407D01*
Y-27991D01*
X227431Y-27782D01*
X227742Y-27991D01*
Y-28407D01*
X227431Y-28615D01*
G01Y-22991D02*
X227121Y-22782D01*
Y-22366D01*
X227431Y-22157D01*
X227742Y-22366D01*
Y-22782D01*
X227431Y-22991D01*
G01X252231Y-15699D02*
Y-28199D01*
G01X248667Y-15699D02*
X255796D01*
G01X264631Y-28199D02*
X263391Y-27991D01*
X262307Y-27157D01*
X261376Y-25907D01*
X260756Y-24449D01*
X260446Y-22782D01*
Y-21115D01*
X260756Y-19449D01*
X261376Y-17991D01*
X262307Y-16741D01*
X263391Y-15907D01*
X264631Y-15699D01*
X265871Y-15907D01*
X266956Y-16741D01*
X267887Y-17991D01*
X268507Y-19449D01*
X268817Y-21115D01*
Y-22782D01*
X268507Y-24449D01*
X267887Y-25907D01*
X266956Y-27157D01*
X265871Y-27991D01*
X264631Y-28199D01*
G01X273931D02*
Y-15699D01*
X277652D01*
X278891Y-16324D01*
X279822Y-17782D01*
X280131Y-19449D01*
X279822Y-21115D01*
X279046Y-22366D01*
X277652Y-22991D01*
X273931D01*
G01X301831Y-15699D02*
Y-28199D01*
G01X299661Y-19866D02*
X304002D01*
G01X314231Y-28199D02*
X313302Y-27991D01*
X312372Y-27157D01*
X311751Y-25699D01*
X311441Y-24032D01*
X311751Y-22366D01*
X312372Y-20907D01*
X313302Y-20074D01*
X314231Y-19866D01*
X315161Y-20074D01*
X316091Y-20907D01*
X316711Y-22366D01*
X316867Y-24032D01*
X316711Y-25699D01*
X316091Y-27157D01*
X315161Y-27991D01*
X314231Y-28199D01*
G01X340271Y-21532D02*
X340891Y-20907D01*
X341356Y-19866D01*
X341667Y-18407D01*
X341356Y-17157D01*
X340737Y-16324D01*
X339652Y-15699D01*
X335467D01*
Y-28199D01*
X340581D01*
X341667Y-27366D01*
X342287Y-26115D01*
X342596Y-24657D01*
X342287Y-23199D01*
X341356Y-21949D01*
X340271Y-21532D01*
X335467D01*
G01X351431Y-28199D02*
X350191Y-27991D01*
X349107Y-27157D01*
X348176Y-25907D01*
X347556Y-24449D01*
X347246Y-22782D01*
Y-21115D01*
X347556Y-19449D01*
X348176Y-17991D01*
X349107Y-16741D01*
X350191Y-15907D01*
X351431Y-15699D01*
X352671Y-15907D01*
X353756Y-16741D01*
X354687Y-17991D01*
X355307Y-19449D01*
X355617Y-21115D01*
Y-22782D01*
X355307Y-24449D01*
X354687Y-25907D01*
X353756Y-27157D01*
X352671Y-27991D01*
X351431Y-28199D01*
G01X363831Y-15699D02*
Y-28199D01*
G01X360267Y-15699D02*
X367396D01*
G01X376231D02*
Y-28199D01*
G01X372667Y-15699D02*
X379796D01*
G01X388631Y-28199D02*
X387391Y-27991D01*
X386307Y-27157D01*
X385376Y-25907D01*
X384756Y-24449D01*
X384446Y-22782D01*
Y-21115D01*
X384756Y-19449D01*
X385376Y-17991D01*
X386307Y-16741D01*
X387391Y-15907D01*
X388631Y-15699D01*
X389871Y-15907D01*
X390956Y-16741D01*
X391887Y-17991D01*
X392507Y-19449D01*
X392817Y-21115D01*
Y-22782D01*
X392507Y-24449D01*
X391887Y-25907D01*
X390956Y-27157D01*
X389871Y-27991D01*
X388631Y-28199D01*
G01X397001D02*
Y-15699D01*
X401031Y-26115D01*
X405062Y-15699D01*
Y-28199D01*
G01X70857Y170128D02*
Y182628D01*
X65122Y173670D01*
X72872D01*
G01X81397Y182628D02*
X80157Y182211D01*
X79227Y181170D01*
X78607Y179920D01*
X78142Y178253D01*
X77987Y176378D01*
X78142Y174503D01*
X78607Y172836D01*
X79227Y171586D01*
X80157Y170544D01*
X81397Y170128D01*
X82637Y170544D01*
X83567Y171586D01*
X84187Y172836D01*
X84652Y174503D01*
X84807Y176378D01*
X84652Y178253D01*
X84187Y179920D01*
X83567Y181170D01*
X82637Y182211D01*
X81397Y182628D01*
G01X87931Y-60039D02*
Y-110039D01*
G01X111336Y-78789D02*
Y-66289D01*
X117227D01*
G01X115056Y-72331D02*
X111336D01*
G01X124822Y-66289D02*
X128541D01*
G01X126681D02*
Y-78789D01*
G01X124822D02*
X128541D01*
G01X135517D02*
Y-66289D01*
X142646Y-78789D01*
Y-66289D01*
G01X149622D02*
X153341D01*
G01X151481D02*
Y-78789D01*
G01X149622D02*
X153341D01*
G01X160626Y-77123D02*
X161867Y-78165D01*
X163261Y-78789D01*
X164502D01*
X165741Y-78165D01*
X166672Y-77123D01*
X167137Y-75664D01*
X166827Y-74206D01*
X166052Y-72956D01*
X164656Y-72122D01*
X162796Y-71706D01*
X161711Y-70873D01*
X161246Y-69415D01*
X161557Y-67956D01*
X162331Y-66915D01*
X163417Y-66289D01*
X164502D01*
X165587Y-66706D01*
X166517Y-67748D01*
G01X173026Y-78789D02*
Y-66289D01*
G01X179537D02*
Y-78789D01*
G01Y-72539D02*
X173026D01*
G01X191781Y-78789D02*
X185581D01*
Y-66289D01*
X191781D01*
G01X189302Y-72331D02*
X185581D01*
G01X197672Y-78789D02*
Y-66289D01*
X200771D01*
X202011Y-66915D01*
X202941Y-67748D01*
X203717Y-68998D01*
X204337Y-70456D01*
X204491Y-72539D01*
X204337Y-74623D01*
X203717Y-76081D01*
X202941Y-77331D01*
X202011Y-78165D01*
X200771Y-78789D01*
X197672D01*
G01X208831Y-82956D02*
X218131D01*
G01X222626Y-77123D02*
X223867Y-78165D01*
X225261Y-78789D01*
X226502D01*
X227741Y-78165D01*
X228672Y-77123D01*
X229137Y-75664D01*
X228827Y-74206D01*
X228052Y-72956D01*
X226656Y-72122D01*
X224796Y-71706D01*
X223711Y-70873D01*
X223246Y-69415D01*
X223557Y-67956D01*
X224331Y-66915D01*
X225417Y-66289D01*
X226502D01*
X227587Y-66706D01*
X228517Y-67748D01*
G01X236422Y-66289D02*
X240141D01*
G01X238281D02*
Y-78789D01*
G01X236422D02*
X240141D01*
G01X247736Y-66289D02*
X253627D01*
X247736Y-78789D01*
X253627D01*
G01X266181D02*
X259981D01*
Y-66289D01*
X266181D01*
G01X263702Y-72331D02*
X259981D01*
G01X95422Y176378D02*
X157480D01*
G01X141732Y173917D02*
X157480Y176378D01*
X141732Y178839D01*
Y173917D01*
G01X176281Y-91289D02*
X175041Y-91706D01*
X174111Y-92748D01*
X173491Y-93998D01*
X173026Y-95665D01*
X172872Y-97539D01*
X173026Y-99415D01*
X173491Y-101081D01*
X174111Y-102331D01*
X175041Y-103373D01*
X176281Y-103789D01*
X177521Y-103373D01*
X178452Y-102331D01*
X179072Y-101081D01*
X179537Y-99415D01*
X179691Y-97539D01*
X179537Y-95665D01*
X179072Y-93998D01*
X178452Y-92748D01*
X177521Y-91706D01*
X176281Y-91289D01*
G01X188681Y-104206D02*
X188371Y-103998D01*
Y-103581D01*
X188681Y-103373D01*
X188992Y-103581D01*
Y-103998D01*
X188681Y-104206D01*
G01X202941Y-103789D02*
Y-91289D01*
X197206Y-100248D01*
X204957D01*
G01X170472Y0D02*
X210630D01*
G01X169685Y157480D02*
X210630D01*
G01X157480Y172441D02*
Y186220D01*
G01X200787Y67052D02*
Y0D01*
G01X198327Y15748D02*
X200787Y0D01*
X203248Y15748D01*
X198327D01*
G01X196447Y76427D02*
Y88927D01*
X190712Y79969D01*
X198463D01*
G01X206987Y88927D02*
X205747Y88511D01*
X204817Y87469D01*
X204197Y86219D01*
X203732Y84552D01*
X203578Y82677D01*
X203732Y80802D01*
X204197Y79135D01*
X204817Y77885D01*
X205747Y76844D01*
X206987Y76427D01*
X208227Y76844D01*
X209157Y77885D01*
X209778Y79135D01*
X210243Y80802D01*
X210397Y82677D01*
X210243Y84552D01*
X209778Y86219D01*
X209157Y87469D01*
X208227Y88511D01*
X206987Y88927D01*
G01X200787Y98302D02*
Y157480D01*
G01X203248Y141732D02*
X200787Y157480D01*
X198327Y141732D01*
X203248D01*
G01X289431Y-60039D02*
Y-110039D01*
G01X318881Y-103789D02*
Y-91289D01*
X322602D01*
X323841Y-91915D01*
X324772Y-93373D01*
X325081Y-95039D01*
X324772Y-96706D01*
X323996Y-97956D01*
X322602Y-98581D01*
X318881D01*
G01X331281Y-91289D02*
Y-103789D01*
X337481D01*
G01X342906D02*
X346781Y-91289D01*
X350657Y-103789D01*
G01X349261Y-99415D02*
X344301D01*
G01X359181Y-91289D02*
Y-103789D01*
G01X355617Y-91289D02*
X362746D01*
G01X374681Y-103789D02*
X368481D01*
Y-91289D01*
X374681D01*
G01X372202Y-97331D02*
X368481D01*
G01X380572Y-103789D02*
Y-91289D01*
X383671D01*
X384911Y-91915D01*
X385841Y-92748D01*
X386617Y-93998D01*
X387237Y-95456D01*
X387391Y-97539D01*
X387237Y-99623D01*
X386617Y-101081D01*
X385841Y-102331D01*
X384911Y-103165D01*
X383671Y-103789D01*
X380572D01*
G01X318881Y-78789D02*
Y-66289D01*
X322602D01*
X323841Y-66915D01*
X324772Y-68373D01*
X325081Y-70039D01*
X324772Y-71706D01*
X323996Y-72956D01*
X322602Y-73581D01*
X318881D01*
G01X331281Y-66289D02*
Y-78789D01*
X337481D01*
G01X342906D02*
X346781Y-66289D01*
X350657Y-78789D01*
G01X349261Y-74415D02*
X344301D01*
G01X359181Y-66289D02*
Y-78789D01*
G01X355617Y-66289D02*
X362746D01*
G01X374681Y-78789D02*
X368481D01*
Y-66289D01*
X374681D01*
G01X372202Y-72331D02*
X368481D01*
G01X380572Y-78789D02*
Y-66289D01*
X383671D01*
X384911Y-66915D01*
X385841Y-67748D01*
X386617Y-68998D01*
X387237Y-70456D01*
X387391Y-72539D01*
X387237Y-74623D01*
X386617Y-76081D01*
X385841Y-77331D01*
X384911Y-78165D01*
X383671Y-78789D01*
X380572D01*
G01X416531Y-60039D02*
Y-110039D01*
G01X446136Y-93373D02*
X447067Y-92123D01*
X448152Y-91498D01*
X449392Y-91289D01*
X450941Y-91706D01*
X452027Y-92748D01*
X452337Y-93998D01*
X452181Y-95248D01*
X451561Y-96289D01*
X448461Y-98373D01*
X447067Y-99831D01*
X446136Y-101915D01*
X445826Y-103789D01*
X452337D01*
G01X458536Y-98581D02*
X459622Y-97122D01*
X460552Y-96289D01*
X461792Y-95873D01*
X462877Y-96289D01*
X463652Y-97122D01*
X464272Y-98373D01*
X464427Y-99831D01*
X464272Y-101081D01*
X463652Y-102331D01*
X462721Y-103373D01*
X461637Y-103789D01*
X460396Y-103373D01*
X459311Y-102123D01*
X458691Y-100248D01*
X458536Y-98165D01*
X458846Y-95456D01*
X459311Y-93998D01*
X460086Y-92539D01*
X461171Y-91498D01*
X462256Y-91289D01*
X463341Y-91706D01*
X464117Y-92748D01*
G01X442881Y-78789D02*
X441641Y-78581D01*
X440557Y-77748D01*
X439626Y-76498D01*
X439006Y-75039D01*
X438696Y-73373D01*
Y-71706D01*
X439006Y-70039D01*
X439626Y-68581D01*
X440557Y-67331D01*
X441641Y-66498D01*
X442881Y-66289D01*
X444121Y-66498D01*
X445206Y-67331D01*
X446137Y-68581D01*
X446757Y-70039D01*
X447067Y-71706D01*
Y-73373D01*
X446757Y-75039D01*
X446137Y-76498D01*
X445206Y-77748D01*
X444121Y-78581D01*
X442881Y-78789D01*
G01X444121Y-75456D02*
X445981Y-78789D01*
G01X455281Y-66289D02*
Y-78789D01*
G01X451717Y-66289D02*
X458846D01*
G01X467681Y-78789D02*
Y-73165D01*
X464581Y-66289D01*
G01X470781D02*
X467681Y-73165D01*
M02*
