G04 ================== begin FILE IDENTIFICATION RECORD ==================*
G04 Layout Name:  PROJECT_PCB.brd*
G04 Film Name:    SMTOP*
G04 File Format:  Gerber RS274X*
G04 File Origin:  Cadence Allegro 17.2-S025*
G04 Origin Date:  Tue Dec 09 00:27:37 2025*
G04 *
G04 Layer:  VIA CLASS/SOLDERMASK_TOP*
G04 Layer:  PIN/SOLDERMASK_TOP*
G04 Layer:  DRC ERROR CLASS/SOLDERMASK_TOP*
G04 *
G04 Offset:    (0.0000 0.0000)*
G04 Mirror:    No*
G04 Mode:      Positive*
G04 Rotation:  0*
G04 FullContactRelief:  No*
G04 UndefLineWidth:     0.3000*
G04 ================== end FILE IDENTIFICATION RECORD ====================*
%FSLAX25Y25*MOIN*%
%IR0*IPPOS*OFA0.00000B0.00000*MIA0B0*SFA1.00000B1.00000*%
%ADD15C,.031496*%
%ADD22R,.125984X.082677*%
%ADD12R,.055118X.082677*%
%ADD18R,.04528X.047244*%
%ADD11R,.047244X.04528*%
%ADD16R,.05315X.059055*%
%ADD21R,.125984X.074803*%
%ADD10C,.07874*%
%ADD14R,.04528X.064961*%
%ADD19R,.064961X.04528*%
%ADD13R,.055118X.055118*%
%ADD17R,.022X.025*%
%ADD20R,.025X.022*%
%LPD*%
G75*
G54D10*
X19685Y22835D03*
Y91339D03*
G54D20*
X66579Y83602D03*
Y91102D03*
X73579Y87402D03*
X113823Y71397D03*
Y78897D03*
X120823Y75197D03*
G54D11*
X18898Y35827D03*
X11811D03*
X19291Y129134D03*
X26378D03*
G54D21*
X113386Y94488D03*
X97638Y85433D03*
G54D12*
X11220Y66339D03*
X33661Y113189D03*
X60433Y18307D03*
G54D13*
X11417Y108661D03*
Y117717D03*
X33465Y61811D03*
Y70866D03*
X82677Y13780D03*
Y22835D03*
G54D22*
X144488Y53150D03*
Y29550D03*
X143307Y83071D03*
Y106671D03*
Y121676D03*
Y145276D03*
G54D14*
X19291Y142913D03*
X11417D03*
X42520Y48425D03*
X50394D03*
X58268Y79528D03*
X50394D03*
X58268Y68110D03*
X50394D03*
X41339Y85827D03*
X33465D03*
X87795Y48425D03*
X86614Y112598D03*
X78740D03*
X86614Y132283D03*
X103150Y20079D03*
X111024D03*
X95669Y48425D03*
X95276Y34252D03*
X103150D03*
X113386Y132283D03*
X94488D03*
X109055Y145276D03*
X101181D03*
X121260Y132283D03*
G54D15*
X28740Y135827D03*
X51575Y33858D03*
X55118Y57087D03*
X44882D03*
X41339Y101181D03*
Y92520D03*
X57087Y135827D03*
X38189D03*
X72835Y33858D03*
X79371Y80946D03*
X62598Y105511D03*
X88189Y101969D03*
X66579Y97638D03*
X73622Y96063D03*
X79134Y105906D03*
X86614Y122047D03*
X73228Y119335D03*
X87008Y142913D03*
X113386Y125197D03*
Y116142D03*
X101181Y125591D03*
Y114173D03*
X116929Y150787D03*
X130315Y38976D03*
Y84646D03*
Y137795D03*
G54D16*
X41339Y11811D03*
X33439D03*
X33465Y35827D03*
X41365D03*
X113360Y106693D03*
X121260D03*
G54D17*
X57343Y102406D03*
X49843D03*
X53543Y109406D03*
X51438Y135870D03*
X43938D03*
X56930Y119335D03*
X47638Y142870D03*
X86871Y85870D03*
X79371D03*
X83071Y92870D03*
X74272Y135870D03*
X66772D03*
X64430Y119335D03*
X60630Y126335D03*
X70472Y142870D03*
G54D18*
X60630Y41339D03*
Y48425D03*
G54D19*
X78740Y67717D03*
Y59843D03*
X95669Y67717D03*
Y59843D03*
M02*
