G04 ================== begin FILE IDENTIFICATION RECORD ==================*
G04 Layout Name:  PROJECT_PCB.brd*
G04 Film Name:    TOP*
G04 File Format:  Gerber RS274X*
G04 File Origin:  Cadence Allegro 17.2-S025*
G04 Origin Date:  Tue Dec 09 00:27:37 2025*
G04 *
G04 Layer:  ETCH/TOP*
G04 Layer:  PIN/TOP*
G04 Layer:  VIA CLASS/TOP*
G04 *
G04 Offset:    (0.0000 0.0000)*
G04 Mirror:    No*
G04 Mode:      Positive*
G04 Rotation:  0*
G04 FullContactRelief:  No*
G04 UndefLineWidth:     0.3000*
G04 ================== end FILE IDENTIFICATION RECORD ====================*
%FSLAX25Y25*MOIN*%
%IR0*IPPOS*OFA0.00000B0.00000*MIA0B0*SFA1.00000B1.00000*%
%ADD18R,.037402X.043311*%
%ADD11R,.043311X.037402*%
%ADD15C,.027559*%
%ADD14R,.037402X.057091*%
%ADD19R,.057091X.037402*%
%ADD12R,.051181X.07874*%
%ADD16R,.049213X.055118*%
%ADD10C,.03937*%
%ADD21R,.120079X.07087*%
%ADD13R,.051181X.051181*%
%ADD22R,.12X.076*%
%ADD17R,.017X.02*%
%ADD20R,.02X.017*%
%ADD23C,.016*%
%ADD24C,.026*%
%ADD25C,.018*%
G75*
%LPD*%
G75*
G54D10*
X19685Y22835D03*
Y91339D03*
G54D20*
X66579Y83602D03*
Y91102D03*
X73579Y87402D03*
X113823Y71397D03*
Y78897D03*
X120823Y75197D03*
G54D11*
X18898Y35827D03*
X11811D03*
X19291Y129134D03*
X26378D03*
G54D21*
X113386Y94488D03*
X97638Y85433D03*
G54D12*
X11220Y66339D03*
X33661Y113189D03*
X60433Y18307D03*
G54D22*
X144488Y53150D03*
Y29550D03*
X143307Y83071D03*
Y106671D03*
Y121676D03*
Y145276D03*
G54D13*
X11417Y108661D03*
Y117717D03*
X33465Y61811D03*
Y70866D03*
X82677Y13780D03*
Y22835D03*
G54D23*
G01X11811Y35827D02*
Y50394D01*
X14173Y52756D01*
X31865D01*
X33465Y54356D01*
Y61811D01*
G01X18898Y35827D02*
X33465D01*
G01X11220Y66339D02*
Y84227D01*
X12820Y85827D01*
X33465D01*
G01X19291Y142913D02*
Y135827D01*
G01D02*
X28740D01*
G01X19291Y129134D02*
Y135827D01*
G01X11417Y142913D02*
Y117717D01*
G01X41365Y35827D02*
Y30727D01*
X41339D01*
Y11811D01*
G01X33439D02*
Y16911D01*
X33465D01*
Y35827D01*
G01X60433Y18307D02*
X53175D01*
X51575Y19907D01*
Y33858D01*
G01X41365Y35827D02*
X46457D01*
X50394Y39764D01*
Y48425D01*
G01Y68110D02*
Y48425D01*
G01X33465Y35827D02*
Y46457D01*
X35433Y48425D01*
X42520D01*
G01D02*
Y55487D01*
X44120Y57087D01*
X44882D01*
G01X33465Y85827D02*
Y70866D01*
G01X58268Y68110D02*
Y79528D01*
G01D02*
Y91339D01*
X49843Y99763D01*
Y102406D01*
G01X66579Y83602D02*
Y63411D01*
X64979Y61811D01*
X57165D01*
X55118Y59765D01*
Y57087D01*
G01D02*
X57874D01*
X60630Y54331D01*
Y48425D01*
G01X57343Y102406D02*
X59493D01*
G01X51181Y117323D02*
X53543Y114961D01*
Y109406D01*
G01X41339Y101181D02*
Y125197D01*
X43938Y127796D01*
Y135870D01*
G01X41339Y85827D02*
Y92520D01*
G01X57087Y135827D02*
X53631D01*
X53588Y135870D01*
X51438D01*
G01X60630Y126485D02*
X50960D01*
X49360Y124885D01*
Y119144D01*
X51181Y117323D01*
G01X56930Y119335D02*
X53193D01*
X51181Y117323D01*
G01X38189Y135827D02*
X41788D01*
Y135870D01*
X43938D01*
G01X47638Y142870D02*
X70472D01*
G01X60433Y18307D02*
Y34449D01*
X60630Y34646D01*
Y41339D01*
G01Y48425D02*
X87795D01*
G01X82677Y22835D02*
Y31102D01*
X79921Y33858D01*
X72835D01*
G01X79371Y85870D02*
Y80946D01*
G01X86871Y85870D02*
Y83570D01*
X87008Y83433D01*
Y76772D01*
X85433Y75197D01*
X82677D01*
X78740Y71260D01*
Y67717D01*
G01X59493Y102406D02*
X62598Y105511D01*
G01X83071Y92870D02*
Y97554D01*
X78219Y102406D01*
X59493D01*
G01X88189Y101969D02*
X97552D01*
X97638Y101883D01*
G01X66579Y91102D02*
Y97638D01*
G01X74272Y135870D02*
Y127696D01*
X78740Y123228D01*
Y112598D01*
G01X64430Y119335D02*
X73228D01*
G01X86614Y122047D02*
Y132283D01*
G01X60630Y126335D02*
Y126485D01*
G01D02*
Y134295D01*
X62205Y135870D01*
X66772D01*
G01X87008Y142913D02*
X72666D01*
X72622Y142870D01*
X70472D01*
G01X103150Y20079D02*
Y34252D01*
G01X113823Y71397D02*
X104724D01*
X101044Y67717D01*
X95669D01*
G01X113823Y85433D02*
Y78897D01*
G01X113360Y106693D02*
Y101593D01*
X113386D01*
Y94488D01*
G01Y116142D02*
Y113642D01*
X113360D01*
Y106693D01*
G01X101181Y114173D02*
Y105426D01*
X97638Y101883D01*
G01Y85433D02*
Y101883D01*
G01X120823Y75197D02*
Y82634D01*
X118024Y85433D01*
X113823D01*
G01D02*
X97638D01*
G01X113386Y132283D02*
Y125197D01*
G01X101181Y145276D02*
Y125591D01*
G54D14*
X19291Y142913D03*
X11417D03*
X42520Y48425D03*
X50394D03*
X58268Y79528D03*
X50394D03*
X58268Y68110D03*
X50394D03*
X41339Y85827D03*
X33465D03*
X87795Y48425D03*
X86614Y112598D03*
X78740D03*
X86614Y132283D03*
X103150Y20079D03*
X111024D03*
X95669Y48425D03*
X95276Y34252D03*
X103150D03*
X113386Y132283D03*
X94488D03*
X109055Y145276D03*
X101181D03*
X121260Y132283D03*
G54D24*
G01X33661Y100984D02*
X31102Y98425D01*
X13780D01*
X11417Y100787D01*
Y108661D01*
G01X33661Y126534D02*
X31061Y129134D01*
X26378D01*
G01X50394Y79528D02*
Y90945D01*
X44488Y96850D01*
X37795D01*
X33661Y100984D01*
G01Y113189D02*
Y100984D01*
G01Y113189D02*
Y126534D01*
G01X116929Y150787D02*
X113625D01*
X113582Y150830D01*
X37838D01*
X33661Y146654D01*
Y126534D01*
G01X144488Y29550D02*
Y21654D01*
X142913Y20079D01*
X111024D01*
G01X130315Y38976D02*
Y31518D01*
X132283Y29550D01*
X144488D01*
G01X143307Y121676D02*
Y106671D01*
G01X130315D02*
X125460D01*
Y106693D01*
X121260D01*
G01X130315Y106671D02*
Y137795D01*
G01X143307Y106671D02*
X130315D01*
G01D02*
Y84646D01*
G54D15*
X28740Y135827D03*
X51575Y33858D03*
X55118Y57087D03*
X44882D03*
X41339Y101181D03*
Y92520D03*
X57087Y135827D03*
X38189D03*
X72835Y33858D03*
X79371Y80946D03*
X62598Y105511D03*
X88189Y101969D03*
X66579Y97638D03*
X73622Y96063D03*
X79134Y105906D03*
X86614Y122047D03*
X73228Y119335D03*
X87008Y142913D03*
X113386Y125197D03*
Y116142D03*
X101181Y125591D03*
Y114173D03*
X116929Y150787D03*
X130315Y38976D03*
Y84646D03*
Y137795D03*
G54D25*
G01X95276Y34252D02*
Y17323D01*
X91732Y13780D01*
X82677D01*
G01X78740Y59843D02*
X95669D01*
G01X73579Y87402D02*
Y93420D01*
X73622Y93463D01*
Y96063D01*
G01X79134Y105906D02*
X84252D01*
X84646Y106299D01*
X84814D01*
X86614Y108099D01*
Y112598D01*
G01X94488Y120472D02*
Y114173D01*
X92913Y112598D01*
X86614D01*
G01X95669Y48425D02*
Y59843D01*
G01X144488Y53150D02*
X122835D01*
X110630Y40945D01*
X96850D01*
X95276Y39370D01*
Y34252D01*
G01X95669Y59843D02*
X118110D01*
X125197Y66929D01*
X138583D01*
X143307Y71654D01*
Y83071D01*
G01X121260Y132283D02*
Y138189D01*
X120079Y139370D01*
X110706D01*
X109055Y141021D01*
Y145276D01*
G01X121260Y132283D02*
Y124241D01*
X119460Y122441D01*
X119291D01*
X117323Y120472D01*
X94488D01*
G01D02*
Y132283D01*
G01X143307Y145276D02*
X109055D01*
G54D16*
X41339Y11811D03*
X33439D03*
X33465Y35827D03*
X41365D03*
X113360Y106693D03*
X121260D03*
G54D17*
X57343Y102406D03*
X49843D03*
X53543Y109406D03*
X51438Y135870D03*
X43938D03*
X56930Y119335D03*
X47638Y142870D03*
X86871Y85870D03*
X79371D03*
X83071Y92870D03*
X74272Y135870D03*
X66772D03*
X64430Y119335D03*
X60630Y126335D03*
X70472Y142870D03*
G54D18*
X60630Y41339D03*
Y48425D03*
G54D19*
X78740Y67717D03*
Y59843D03*
X95669Y67717D03*
Y59843D03*
M02*
